# xmcd
#
# Track frame offsets: 
#        187
#        32087
#        45725
#        89127
#        103772
#        121800
#        138440
#        155380
#
# Disc length: 2335 seconds
#
# Revision: 7
# Processed by: cddbd v1.5.2PL0 Copyright (c) Steve Scherf et al.
# Submitted via: ExactAudioCopy v1.1
#
DISCID=68091d08
DTITLE=The Modern Jazz Quartet - Django
DYEAR=1953
DGENRE=Jazz
TTITLE0=Django
TTITLE1=One Bass Hit
TTITLE2=La Ronde Suite
TTITLE3=The Queen's Fancy
TTITLE4=Delaunay's Dilemma
TTITLE5=Autumn In New York
TTITLE6=But Not For Me
TTITLE7=Milano
EXTD=YEAR: 1953
EXTT0=
EXTT1=
EXTT2=
EXTT3=
EXTT4=
EXTT5=
EXTT6=
EXTT7=
PLAYORDER=
